REM DIRINDEX 1\2,1\3
REM DIRNAME folder01,folder02,folder03
TITLE ""
FILE "CD2Track04.mp3" MP3
  TRACK 01 AUDIO
    TITLE "0:"
    INDEX 01 00:00:00
  TRACK 02 AUDIO
    TITLE "2:cjc102_2367"
    INDEX 01 00:00:25
  TRACK 03 AUDIO
    TITLE "0:"
    INDEX 01 00:01:21
  TRACK 04 AUDIO
    TITLE "3:cjc102_2368"
    INDEX 01 00:01:24
  TRACK 05 AUDIO
    TITLE "0:"
    INDEX 01 00:02:61
  TRACK 06 AUDIO
    TITLE "3:cjc102_2369"
    INDEX 01 00:03:15
  TRACK 07 AUDIO
    TITLE "0:"
    INDEX 01 00:06:69
  TRACK 08 AUDIO
    TITLE "2:cjc102_2370"
    INDEX 01 00:06:71
  TRACK 09 AUDIO
    TITLE "0:"
    INDEX 01 00:07:72
  TRACK 10 AUDIO
    TITLE "3:cjc102_2371"
    INDEX 01 00:08:17
  TRACK 11 AUDIO
    TITLE "0:"
    INDEX 01 00:09:02
  TRACK 12 AUDIO
    TITLE "2:cjc102_2372"
    INDEX 01 00:09:08
  TRACK 13 AUDIO
    TITLE "0:"
    INDEX 01 00:10:23
  TRACK 14 AUDIO
    TITLE "3:cjc102_2373"
    INDEX 01 00:11:01
  TRACK 15 AUDIO
    TITLE "0:"
    INDEX 01 00:11:62
  TRACK 16 AUDIO
    TITLE "2:cjc102_2374"
    INDEX 01 00:12:09
  TRACK 17 AUDIO
    TITLE "0:"
    INDEX 01 00:13:37
  TRACK 18 AUDIO
    TITLE "3:cjc102_2375"
    INDEX 01 00:14:11
  TRACK 19 AUDIO
    TITLE "0:"
    INDEX 01 00:15:07
  TRACK 20 AUDIO
    TITLE "2:cjc102_2376"
    INDEX 01 00:15:09
  TRACK 21 AUDIO
    TITLE "0:"
    INDEX 01 00:16:24
  TRACK 22 AUDIO
    TITLE "3:cjc102_2377"
    INDEX 01 00:17:31
  TRACK 23 AUDIO
    TITLE "0:"
    INDEX 01 00:18:05
  TRACK 24 AUDIO
    TITLE "2:cjc102_2378"
    INDEX 01 00:18:07
  TRACK 25 AUDIO
    TITLE "0:"
    INDEX 01 00:19:26
  TRACK 26 AUDIO
    TITLE "3:cjc102_2379"
    INDEX 01 00:20:39
  TRACK 27 AUDIO
    TITLE "0:"
    INDEX 01 00:21:21
  TRACK 28 AUDIO
    TITLE "2:cjc102_2380"
    INDEX 01 00:21:25
  TRACK 29 AUDIO
    TITLE "0:"
    INDEX 01 00:22:46
  TRACK 30 AUDIO
    TITLE "3:cjc102_2381"
    INDEX 01 00:23:63
  TRACK 31 AUDIO
    TITLE "0:"
    INDEX 01 00:24:55
  TRACK 32 AUDIO
    TITLE "2:cjc102_2382"
    INDEX 01 00:24:59
  TRACK 33 AUDIO
    TITLE "0:"
    INDEX 01 00:26:18
  TRACK 34 AUDIO
    TITLE "3:cjc102_2383"
    INDEX 01 00:27:00
  TRACK 35 AUDIO
    TITLE "0:"
    INDEX 01 00:27:67
  TRACK 36 AUDIO
    TITLE "2:cjc102_2384"
    INDEX 01 00:28:41
  TRACK 37 AUDIO
    TITLE "0:"
    INDEX 01 00:29:58
  TRACK 38 AUDIO
    TITLE "3:cjc102_2385"
    INDEX 01 00:30:42
  TRACK 39 AUDIO
    TITLE "0:"
    INDEX 01 00:31:37
  TRACK 40 AUDIO
    TITLE "2:cjc102_2386"
    INDEX 01 00:31:71
  TRACK 41 AUDIO
    TITLE "0:"
    INDEX 01 00:33:01
  TRACK 42 AUDIO
    TITLE "3:cjc102_2387"
    INDEX 01 00:33:68
  TRACK 43 AUDIO
    TITLE "0:"
    INDEX 01 00:34:59
  TRACK 44 AUDIO
    TITLE "2:cjc102_2388"
    INDEX 01 00:35:06
  TRACK 45 AUDIO
    TITLE "0:"
    INDEX 01 00:36:23
  TRACK 46 AUDIO
    TITLE "3:cjc102_2389"
    INDEX 01 00:37:40
  TRACK 47 AUDIO
    TITLE "0:"
    INDEX 01 00:38:33
  TRACK 48 AUDIO
    TITLE "2:cjc102_2390"
    INDEX 01 00:38:71
  TRACK 49 AUDIO
    TITLE "0:"
    INDEX 01 00:40:21
  TRACK 50 AUDIO
    TITLE "3:cjc102_2391"
    INDEX 01 00:41:18
  TRACK 51 AUDIO
    TITLE "0:"
    INDEX 01 00:42:35
  TRACK 52 AUDIO
    TITLE "2:cjc102_2392"
    INDEX 01 00:42:45
  TRACK 53 AUDIO
    TITLE "0:"
    INDEX 01 00:43:52
  TRACK 54 AUDIO
    TITLE "3:cjc102_2393"
    INDEX 01 00:44:36
  TRACK 55 AUDIO
    TITLE "0:"
    INDEX 01 00:45:47
  TRACK 56 AUDIO
    TITLE "2:cjc102_2394"
    INDEX 01 00:45:73
  TRACK 57 AUDIO
    TITLE "0:"
    INDEX 01 00:47:15
  TRACK 58 AUDIO
    TITLE "3:cjc102_2395"
    INDEX 01 00:48:22
  TRACK 59 AUDIO
    TITLE "0:"
    INDEX 01 00:49:43
  TRACK 60 AUDIO
    TITLE "2:cjc102_2396"
    INDEX 01 00:49:45
  TRACK 61 AUDIO
    TITLE "0:"
    INDEX 01 00:50:54
  TRACK 62 AUDIO
    TITLE "3:cjc102_2397"
    INDEX 01 00:51:63
  TRACK 63 AUDIO
    TITLE "0:"
    INDEX 01 00:53:04
  TRACK 64 AUDIO
    TITLE "2:cjc102_2398"
    INDEX 01 00:53:09
  TRACK 65 AUDIO
    TITLE "0:"
    INDEX 01 00:54:19
  TRACK 66 AUDIO
    TITLE "3:cjc102_2399"
    INDEX 01 00:55:53
  TRACK 67 AUDIO
    TITLE "0:"
    INDEX 01 00:56:61
  TRACK 68 AUDIO
    TITLE "2:cjc102_2400"
    INDEX 01 00:56:65
  TRACK 69 AUDIO
    TITLE "0:"
    INDEX 01 00:58:09
  TRACK 70 AUDIO
    TITLE "3:cjc102_2401"
    INDEX 01 00:59:38
  TRACK 71 AUDIO
    TITLE "0:"
    INDEX 01 01:00:43
  TRACK 72 AUDIO
    TITLE "2:cjc102_2402"
    INDEX 01 01:00:49
  TRACK 73 AUDIO
    TITLE "0:"
    INDEX 01 01:01:54
  TRACK 74 AUDIO
    TITLE "3:cjc102_2403"
    INDEX 01 01:04:33
  TRACK 75 AUDIO
    TITLE "0:"
    INDEX 01 01:05:52
  TRACK 76 AUDIO
    TITLE "2:cjc102_2404"
    INDEX 01 01:05:62
  TRACK 77 AUDIO
    TITLE "0:"
    INDEX 01 01:06:71
  TRACK 78 AUDIO
    TITLE "2:cjc102_2405"
    INDEX 01 01:07:23
  TRACK 79 AUDIO
    TITLE "0:"
    INDEX 01 01:08:29
  TRACK 80 AUDIO
    TITLE "3:cjc102_2406"
    INDEX 01 01:09:40
  TRACK 81 AUDIO
    TITLE "0:"
    INDEX 01 01:10:63
  TRACK 82 AUDIO
    TITLE "2:cjc102_2407"
    INDEX 01 01:10:67
  TRACK 83 AUDIO
    TITLE "0:"
    INDEX 01 01:12:05
  TRACK 84 AUDIO
    TITLE "2:cjc102_2408"
    INDEX 01 01:12:32
  TRACK 85 AUDIO
    TITLE "0:"
    INDEX 01 01:13:47
  TRACK 86 AUDIO
    TITLE "3:cjc102_2409"
    INDEX 01 01:14:65
  TRACK 87 AUDIO
    TITLE "0:"
    INDEX 01 01:15:70
  TRACK 88 AUDIO
    TITLE "2:cjc102_2410"
    INDEX 01 01:16:11
  TRACK 89 AUDIO
    TITLE "0:"
    INDEX 01 01:17:12
  TRACK 90 AUDIO
    TITLE "2:cjc102_2411"
    INDEX 01 01:17:47
  TRACK 91 AUDIO
    TITLE "0:"
    INDEX 01 01:18:62
  TRACK 92 AUDIO
    TITLE "3:cjc102_2412"
    INDEX 01 01:19:70
  TRACK 93 AUDIO
    TITLE "0:"
    INDEX 01 01:20:63
  TRACK 94 AUDIO
    TITLE "2:cjc102_2413"
    INDEX 01 01:20:67
  TRACK 95 AUDIO
    TITLE "0:"
    INDEX 01 01:21:69
  TRACK 96 AUDIO
    TITLE "2:cjc102_2414"
    INDEX 01 01:22:23
  TRACK 97 AUDIO
    TITLE "0:"
    INDEX 01 01:23:36
  TRACK 98 AUDIO
    TITLE "3:cjc102_2415"
    INDEX 01 01:24:22
  TRACK 99 AUDIO
    TITLE "0:"
    INDEX 01 01:25:49
  TRACK 100 AUDIO
    TITLE "2:cjc102_2416"
    INDEX 01 01:25:51
  TRACK 101 AUDIO
    TITLE "0:"
    INDEX 01 01:26:66
  TRACK 102 AUDIO
    TITLE "2:cjc102_2417"
    INDEX 01 01:27:16
  TRACK 103 AUDIO
    TITLE "0:"
    INDEX 01 01:28:35
  TRACK 104 AUDIO
    TITLE "3:cjc102_2418"
    INDEX 01 01:29:33
  TRACK 105 AUDIO
    TITLE "0:"
    INDEX 01 01:30:54
  TRACK 106 AUDIO
    TITLE "2:cjc102_2419"
    INDEX 01 01:31:16
  TRACK 107 AUDIO
    TITLE "0:"
    INDEX 01 01:33:48
  TRACK 108 AUDIO
    TITLE "3:cjc102_2420"
    INDEX 01 01:34:57
  TRACK 109 AUDIO
    TITLE "0:"
    INDEX 01 01:36:09
  TRACK 110 AUDIO
    TITLE "2:cjc102_2421"
    INDEX 01 01:36:11
  TRACK 111 AUDIO
    TITLE "0:"
    INDEX 01 01:39:37
  TRACK 112 AUDIO
    TITLE "3:cjc102_2422"
    INDEX 01 01:40:56
  TRACK 113 AUDIO
    TITLE "0:"
    INDEX 01 01:42:10
  TRACK 114 AUDIO
    TITLE "2:cjc102_2423"
    INDEX 01 01:42:24
  TRACK 115 AUDIO
    TITLE "0:"
    INDEX 01 01:46:18
